<svg width="64" height="64" viewBox="0 0 64 64" fill="none" xmlns="http://www.w3.org/2000/svg">
<rect width="64" height="64" rx="16" fill="#EFF6FF"/>
<path d="M21.4999 24C21.1021 24 20.7206 24.158 20.4393 24.4393C20.158 24.7206 19.9999 25.1022 19.9999 25.5V32.5C19.9999 33.328 20.6719 34 21.4999 34H42.4999C42.8978 34 43.2793 33.842 43.5606 33.5607C43.8419 33.2794 43.9999 32.8978 43.9999 32.5V25.5C43.9999 25.1022 43.8419 24.7206 43.5606 24.4393C43.2793 24.158 42.8978 24 42.4999 24H21.4999ZM22.9999 31V27H40.9999V31H22.9999ZM35.4999 36C35.1021 36 34.7206 36.158 34.4393 36.4393C34.158 36.7206 33.9999 37.1022 33.9999 37.5V38.1C34.3239 38.034 34.6579 38 34.9999 38H43.9999V37.5C43.9999 37.1022 43.8419 36.7206 43.5606 36.4393C43.2793 36.158 42.8978 36 42.4999 36H35.4999ZM30.9999 37.5V40C30.3719 40.836 29.9999 41.874 29.9999 43V50H15.4999C15.1021 50 14.7206 49.842 14.4393 49.5607C14.158 49.2794 13.9999 48.8978 13.9999 48.5V21.464C13.2374 21.0237 12.6415 20.3441 12.3046 19.5306C11.9676 18.7171 11.9085 17.8152 12.1364 16.9647C12.3643 16.1142 12.8665 15.3627 13.565 14.8266C14.2636 14.2906 15.1194 14 15.9999 14H47.9999C48.8805 14 49.7363 14.2906 50.4349 14.8266C51.1334 15.3627 51.6356 16.1142 51.8635 16.9647C52.0914 17.8152 52.0323 18.7171 51.6953 19.5306C51.3584 20.3441 50.7625 21.0237 49.9999 21.464V38H46.9999V22H16.9999V47H19.9999V37.5C19.9999 37.1022 20.158 36.7206 20.4393 36.4393C20.7206 36.158 21.1021 36 21.4999 36H29.4999C29.8978 36 30.2793 36.158 30.5606 36.4393C30.8419 36.7206 30.9999 37.1022 30.9999 37.5ZM14.9999 18C14.9999 18.2652 15.1053 18.5196 15.2928 18.7071C15.4804 18.8946 15.7347 19 15.9999 19H47.9999C48.2652 19 48.5195 18.8946 48.7071 18.7071C48.8946 18.5196 48.9999 18.2652 48.9999 18C48.9999 17.7348 48.8946 17.4804 48.7071 17.2929C48.5195 17.1054 48.2652 17 47.9999 17H15.9999C15.7347 17 15.4804 17.1054 15.2928 17.2929C15.1053 17.4804 14.9999 17.7348 14.9999 18ZM27.9999 47V39H22.9999V47H27.9999ZM31.9999 43C31.9999 42.2044 32.316 41.4413 32.8786 40.8787C33.4412 40.3161 34.2043 40 34.9999 40H50.9999C51.7956 40 52.5587 40.3161 53.1213 40.8787C53.6839 41.4413 53.9999 42.2044 53.9999 43V51C53.9999 51.7957 53.6839 52.5587 53.1213 53.1213C52.5587 53.6839 51.7956 54 50.9999 54H34.9999C34.2043 54 33.4412 53.6839 32.8786 53.1213C32.316 52.5587 31.9999 51.7957 31.9999 51V43ZM51.9999 44C51.4695 44 50.9608 43.7893 50.5857 43.4142C50.2107 43.0391 49.9999 42.5304 49.9999 42H47.9999C47.9999 43.0609 48.4214 44.0783 49.1715 44.8284C49.9217 45.5786 50.9391 46 51.9999 46V44ZM51.9999 48C50.9391 48 49.9217 48.4214 49.1715 49.1716C48.4214 49.9217 47.9999 50.9391 47.9999 52H49.9999C49.9999 51.4696 50.2107 50.9609 50.5857 50.5858C50.9608 50.2107 51.4695 50 51.9999 50V48ZM35.9999 42C35.9999 42.5304 35.7892 43.0391 35.4142 43.4142C35.0391 43.7893 34.5304 44 33.9999 44V46C35.0608 46 36.0782 45.5786 36.8284 44.8284C37.5785 44.0783 37.9999 43.0609 37.9999 42H35.9999ZM37.9999 52C37.9999 50.9391 37.5785 49.9217 36.8284 49.1716C36.0782 48.4214 35.0608 48 33.9999 48V50C34.5304 50 35.0391 50.2107 35.4142 50.5858C35.7892 50.9609 35.9999 51.4696 35.9999 52H37.9999ZM46.4999 47C46.4999 46.0717 46.1312 45.1815 45.4748 44.5251C44.8184 43.8687 43.9282 43.5 42.9999 43.5C42.0717 43.5 41.1815 43.8687 40.5251 44.5251C39.8687 45.1815 39.4999 46.0717 39.4999 47C39.4999 47.9283 39.8687 48.8185 40.5251 49.4749C41.1815 50.1312 42.0717 50.5 42.9999 50.5C43.9282 50.5 44.8184 50.1312 45.4748 49.4749C46.1312 48.8185 46.4999 47.9283 46.4999 47Z" fill="#2563EB"/>
</svg>
