<svg width="64" height="64" viewBox="0 0 64 64" fill="none" xmlns="http://www.w3.org/2000/svg">
<rect width="64" height="64" rx="16" fill="#EFF6FF"/>
<path d="M32 11.998C43.048 11.998 52.004 20.954 52.004 32.002C52.004 43.048 43.048 52.004 32 52.004C20.952 52.004 11.996 43.048 11.996 32.002C11.996 20.954 20.952 11.998 32 11.998ZM37.878 41H26.12C27.424 45.828 29.692 49.004 31.998 49.004C34.304 49.004 36.572 45.828 37.876 41H37.878ZM23.018 41H17.57C19.501 44.0899 22.3703 46.4805 25.758 47.822C24.714 46.182 23.852 44.13 23.218 41.792L23.014 41.002L23.018 41ZM46.428 41H40.984C40.336 43.67 39.4 46 38.238 47.822C41.4116 46.5667 44.1357 44.3882 46.058 41.568L46.428 41.002V41ZM22.188 28H15.47L15.46 28.034C15.1497 29.3339 14.9933 30.6657 14.994 32.002C14.994 34.114 15.38 36.136 16.084 38.002H22.43C21.947 34.6907 21.8644 31.3332 22.184 28.002L22.188 28ZM38.794 28H25.206C24.8541 31.3307 24.9449 34.6932 25.476 38H38.524C39.0549 34.6932 39.1457 31.3307 38.794 28ZM48.53 28H41.814C41.938 29.294 42.004 30.634 42.004 32C42.0072 34.0081 41.8615 36.0136 41.568 38H47.914C48.6361 36.0822 49.0047 34.0493 49.002 32C49.002 30.622 48.838 29.28 48.53 28ZM25.76 16.18L25.714 16.196C21.6208 17.8305 18.3189 20.9855 16.5 25H22.596C23.224 21.496 24.316 18.444 25.762 16.18H25.76ZM32 14.998L31.768 15.008C29.24 15.24 26.792 19.244 25.66 25H38.344C37.212 19.26 34.778 15.262 32.254 15.01L32 15V14.998ZM38.24 16.178L38.454 16.528C39.792 18.752 40.808 21.672 41.404 25.002H47.5C45.7637 21.1702 42.6733 18.1147 38.822 16.422L38.24 16.18V16.178Z" fill="#2563EB"/>
</svg>
