<svg width="117" height="400" viewBox="0 0 117 400" fill="none" xmlns="http://www.w3.org/2000/svg">
<rect x="-75" y="25" width="150" height="350" rx="75" stroke="#6366F1" stroke-width="50"/>
<circle cx="9.5" cy="271.5" r="2.5" fill="#BFDBFE"/>
<circle cx="9.5" cy="301.5" r="2.5" fill="#BFDBFE"/>
<circle cx="9.5" cy="286.5" r="2.5" fill="#BFDBFE"/>
<circle cx="9.5" cy="316.5" r="2.5" fill="#BFDBFE"/>
<circle cx="69.5" cy="271.5" r="2.5" fill="#BFDBFE"/>
<circle cx="69.5" cy="301.5" r="2.5" fill="#BFDBFE"/>
<circle cx="69.5" cy="286.5" r="2.5" fill="#BFDBFE"/>
<circle cx="69.5" cy="316.5" r="2.5" fill="#BFDBFE"/>
<circle cx="39.5" cy="271.5" r="2.5" fill="#BFDBFE"/>
<circle cx="39.5" cy="301.5" r="2.5" fill="#BFDBFE"/>
<circle cx="39.5" cy="286.5" r="2.5" fill="#BFDBFE"/>
<circle cx="39.5" cy="316.5" r="2.5" fill="#BFDBFE"/>
<circle cx="99.5" cy="271.5" r="2.5" fill="#BFDBFE"/>
<circle cx="99.5" cy="301.5" r="2.5" fill="#BFDBFE"/>
<circle cx="99.5" cy="286.5" r="2.5" fill="#BFDBFE"/>
<circle cx="99.5" cy="316.5" r="2.5" fill="#BFDBFE"/>
<circle cx="24.5" cy="271.5" r="2.5" fill="#BFDBFE"/>
<circle cx="24.5" cy="301.5" r="2.5" fill="#BFDBFE"/>
<circle cx="24.5" cy="286.5" r="2.5" fill="#BFDBFE"/>
<circle cx="24.5" cy="316.5" r="2.5" fill="#BFDBFE"/>
<circle cx="84.5" cy="271.5" r="2.5" fill="#BFDBFE"/>
<circle cx="84.5" cy="301.5" r="2.5" fill="#BFDBFE"/>
<circle cx="84.5" cy="286.5" r="2.5" fill="#BFDBFE"/>
<circle cx="84.5" cy="316.5" r="2.5" fill="#BFDBFE"/>
<circle cx="54.5" cy="271.5" r="2.5" fill="#BFDBFE"/>
<circle cx="54.5" cy="301.5" r="2.5" fill="#BFDBFE"/>
<circle cx="54.5" cy="286.5" r="2.5" fill="#BFDBFE"/>
<circle cx="54.5" cy="316.5" r="2.5" fill="#BFDBFE"/>
<circle cx="114.5" cy="271.5" r="2.5" fill="#BFDBFE"/>
<circle cx="114.5" cy="301.5" r="2.5" fill="#BFDBFE"/>
<circle cx="114.5" cy="286.5" r="2.5" fill="#BFDBFE"/>
<circle cx="114.5" cy="316.5" r="2.5" fill="#BFDBFE"/>
</svg>
