<svg width="400" height="217" viewBox="0 0 400 217" fill="none" xmlns="http://www.w3.org/2000/svg">
<g opacity="0.7">
<rect x="375" y="25" width="150" height="350" rx="75" transform="rotate(90 375 25)" stroke="#6366F1" stroke-width="50"/>
<circle cx="128.5" cy="109.5" r="2.5" transform="rotate(90 128.5 109.5)" fill="#BFDBFE"/>
<circle cx="98.4999" cy="109.5" r="2.5" transform="rotate(90 98.4999 109.5)" fill="#BFDBFE"/>
<circle cx="113.5" cy="109.5" r="2.5" transform="rotate(90 113.5 109.5)" fill="#BFDBFE"/>
<circle cx="83.4999" cy="109.5" r="2.5" transform="rotate(90 83.4999 109.5)" fill="#BFDBFE"/>
<circle cx="128.5" cy="169.5" r="2.5" transform="rotate(90 128.5 169.5)" fill="#BFDBFE"/>
<circle cx="98.4999" cy="169.5" r="2.5" transform="rotate(90 98.4999 169.5)" fill="#BFDBFE"/>
<circle cx="113.5" cy="169.5" r="2.5" transform="rotate(90 113.5 169.5)" fill="#BFDBFE"/>
<circle cx="83.4999" cy="169.5" r="2.5" transform="rotate(90 83.4999 169.5)" fill="#BFDBFE"/>
<circle cx="128.5" cy="139.5" r="2.5" transform="rotate(90 128.5 139.5)" fill="#BFDBFE"/>
<circle cx="98.4999" cy="139.5" r="2.5" transform="rotate(90 98.4999 139.5)" fill="#BFDBFE"/>
<circle cx="113.5" cy="139.5" r="2.5" transform="rotate(90 113.5 139.5)" fill="#BFDBFE"/>
<circle cx="83.4999" cy="139.5" r="2.5" transform="rotate(90 83.4999 139.5)" fill="#BFDBFE"/>
<circle cx="128.5" cy="199.5" r="2.5" transform="rotate(90 128.5 199.5)" fill="#BFDBFE"/>
<circle cx="98.4999" cy="199.5" r="2.5" transform="rotate(90 98.4999 199.5)" fill="#BFDBFE"/>
<circle cx="113.5" cy="199.5" r="2.5" transform="rotate(90 113.5 199.5)" fill="#BFDBFE"/>
<circle cx="83.4999" cy="199.5" r="2.5" transform="rotate(90 83.4999 199.5)" fill="#BFDBFE"/>
<circle cx="128.5" cy="124.5" r="2.5" transform="rotate(90 128.5 124.5)" fill="#BFDBFE"/>
<circle cx="98.4999" cy="124.5" r="2.5" transform="rotate(90 98.4999 124.5)" fill="#BFDBFE"/>
<circle cx="113.5" cy="124.5" r="2.5" transform="rotate(90 113.5 124.5)" fill="#BFDBFE"/>
<circle cx="83.4999" cy="124.5" r="2.5" transform="rotate(90 83.4999 124.5)" fill="#BFDBFE"/>
<circle cx="128.5" cy="184.5" r="2.5" transform="rotate(90 128.5 184.5)" fill="#BFDBFE"/>
<circle cx="98.4999" cy="184.5" r="2.5" transform="rotate(90 98.4999 184.5)" fill="#BFDBFE"/>
<circle cx="113.5" cy="184.5" r="2.5" transform="rotate(90 113.5 184.5)" fill="#BFDBFE"/>
<circle cx="83.4999" cy="184.5" r="2.5" transform="rotate(90 83.4999 184.5)" fill="#BFDBFE"/>
<circle cx="128.5" cy="154.5" r="2.5" transform="rotate(90 128.5 154.5)" fill="#BFDBFE"/>
<circle cx="98.4999" cy="154.5" r="2.5" transform="rotate(90 98.4999 154.5)" fill="#BFDBFE"/>
<circle cx="113.5" cy="154.5" r="2.5" transform="rotate(90 113.5 154.5)" fill="#BFDBFE"/>
<circle cx="83.4999" cy="154.5" r="2.5" transform="rotate(90 83.4999 154.5)" fill="#BFDBFE"/>
<circle cx="128.5" cy="214.5" r="2.5" transform="rotate(90 128.5 214.5)" fill="#BFDBFE"/>
<circle cx="98.4999" cy="214.5" r="2.5" transform="rotate(90 98.4999 214.5)" fill="#BFDBFE"/>
<circle cx="113.5" cy="214.5" r="2.5" transform="rotate(90 113.5 214.5)" fill="#BFDBFE"/>
<circle cx="83.4999" cy="214.5" r="2.5" transform="rotate(90 83.4999 214.5)" fill="#BFDBFE"/>
</g>
</svg>
