<svg width="230" height="110" viewBox="0 0 230 110" fill="none" xmlns="http://www.w3.org/2000/svg">
<circle cx="122.5" cy="2.5" r="2.5" fill="#BFDBFE"/>
<circle cx="122.5" cy="32.5" r="2.5" fill="#BFDBFE"/>
<circle cx="122.5" cy="17.5" r="2.5" fill="#BFDBFE"/>
<circle cx="122.5" cy="47.5" r="2.5" fill="#BFDBFE"/>
<circle cx="182.5" cy="2.5" r="2.5" fill="#BFDBFE"/>
<circle cx="182.5" cy="32.5" r="2.5" fill="#BFDBFE"/>
<circle cx="182.5" cy="17.5" r="2.5" fill="#BFDBFE"/>
<circle cx="182.5" cy="47.5" r="2.5" fill="#BFDBFE"/>
<circle cx="152.5" cy="2.5" r="2.5" fill="#BFDBFE"/>
<circle cx="152.5" cy="32.5" r="2.5" fill="#BFDBFE"/>
<circle cx="152.5" cy="17.5" r="2.5" fill="#BFDBFE"/>
<circle cx="152.5" cy="47.5" r="2.5" fill="#BFDBFE"/>
<circle cx="212.5" cy="2.5" r="2.5" fill="#BFDBFE"/>
<circle cx="212.5" cy="32.5" r="2.5" fill="#BFDBFE"/>
<circle cx="212.5" cy="17.5" r="2.5" fill="#BFDBFE"/>
<circle cx="212.5" cy="47.5" r="2.5" fill="#BFDBFE"/>
<circle cx="137.5" cy="2.5" r="2.5" fill="#BFDBFE"/>
<circle cx="137.5" cy="32.5" r="2.5" fill="#BFDBFE"/>
<circle cx="137.5" cy="17.5" r="2.5" fill="#BFDBFE"/>
<circle cx="137.5" cy="47.5" r="2.5" fill="#BFDBFE"/>
<circle cx="197.5" cy="2.5" r="2.5" fill="#BFDBFE"/>
<circle cx="197.5" cy="32.5" r="2.5" fill="#BFDBFE"/>
<circle cx="197.5" cy="17.5" r="2.5" fill="#BFDBFE"/>
<circle cx="197.5" cy="47.5" r="2.5" fill="#BFDBFE"/>
<circle cx="167.5" cy="2.5" r="2.5" fill="#BFDBFE"/>
<circle cx="167.5" cy="32.5" r="2.5" fill="#BFDBFE"/>
<circle cx="167.5" cy="17.5" r="2.5" fill="#BFDBFE"/>
<circle cx="167.5" cy="47.5" r="2.5" fill="#BFDBFE"/>
<circle cx="227.5" cy="2.5" r="2.5" fill="#BFDBFE"/>
<circle cx="227.5" cy="32.5" r="2.5" fill="#BFDBFE"/>
<circle cx="227.5" cy="17.5" r="2.5" fill="#BFDBFE"/>
<circle cx="227.5" cy="47.5" r="2.5" fill="#BFDBFE"/>
<circle cx="122.5" cy="62.5" r="2.5" fill="#BFDBFE"/>
<circle cx="122.5" cy="92.5" r="2.5" fill="#BFDBFE"/>
<circle cx="122.5" cy="77.5" r="2.5" fill="#BFDBFE"/>
<circle cx="122.5" cy="107.5" r="2.5" fill="#BFDBFE"/>
<circle cx="182.5" cy="62.5" r="2.5" fill="#BFDBFE"/>
<circle cx="182.5" cy="92.5" r="2.5" fill="#BFDBFE"/>
<circle cx="182.5" cy="77.5" r="2.5" fill="#BFDBFE"/>
<circle cx="182.5" cy="107.5" r="2.5" fill="#BFDBFE"/>
<circle cx="152.5" cy="62.5" r="2.5" fill="#BFDBFE"/>
<circle cx="152.5" cy="92.5" r="2.5" fill="#BFDBFE"/>
<circle cx="152.5" cy="77.5" r="2.5" fill="#BFDBFE"/>
<circle cx="152.5" cy="107.5" r="2.5" fill="#BFDBFE"/>
<circle cx="212.5" cy="62.5" r="2.5" fill="#BFDBFE"/>
<circle cx="212.5" cy="92.5" r="2.5" fill="#BFDBFE"/>
<circle cx="212.5" cy="77.5" r="2.5" fill="#BFDBFE"/>
<circle cx="212.5" cy="107.5" r="2.5" fill="#BFDBFE"/>
<circle cx="137.5" cy="62.5" r="2.5" fill="#BFDBFE"/>
<circle cx="137.5" cy="92.5" r="2.5" fill="#BFDBFE"/>
<circle cx="137.5" cy="77.5" r="2.5" fill="#BFDBFE"/>
<circle cx="137.5" cy="107.5" r="2.5" fill="#BFDBFE"/>
<circle cx="197.5" cy="62.5" r="2.5" fill="#BFDBFE"/>
<circle cx="197.5" cy="92.5" r="2.5" fill="#BFDBFE"/>
<circle cx="197.5" cy="77.5" r="2.5" fill="#BFDBFE"/>
<circle cx="197.5" cy="107.5" r="2.5" fill="#BFDBFE"/>
<circle cx="167.5" cy="62.5" r="2.5" fill="#BFDBFE"/>
<circle cx="167.5" cy="92.5" r="2.5" fill="#BFDBFE"/>
<circle cx="167.5" cy="77.5" r="2.5" fill="#BFDBFE"/>
<circle cx="167.5" cy="107.5" r="2.5" fill="#BFDBFE"/>
<circle cx="227.5" cy="62.5" r="2.5" fill="#BFDBFE"/>
<circle cx="227.5" cy="92.5" r="2.5" fill="#BFDBFE"/>
<circle cx="227.5" cy="77.5" r="2.5" fill="#BFDBFE"/>
<circle cx="227.5" cy="107.5" r="2.5" fill="#BFDBFE"/>
<circle cx="2.5" cy="2.5" r="2.5" fill="#BFDBFE"/>
<circle cx="2.5" cy="32.5" r="2.5" fill="#BFDBFE"/>
<circle cx="2.5" cy="17.5" r="2.5" fill="#BFDBFE"/>
<circle cx="2.5" cy="47.5" r="2.5" fill="#BFDBFE"/>
<circle cx="62.5" cy="2.5" r="2.5" fill="#BFDBFE"/>
<circle cx="62.5" cy="32.5" r="2.5" fill="#BFDBFE"/>
<circle cx="62.5" cy="17.5" r="2.5" fill="#BFDBFE"/>
<circle cx="62.5" cy="47.5" r="2.5" fill="#BFDBFE"/>
<circle cx="32.5" cy="2.5" r="2.5" fill="#BFDBFE"/>
<circle cx="32.5" cy="32.5" r="2.5" fill="#BFDBFE"/>
<circle cx="32.5" cy="17.5" r="2.5" fill="#BFDBFE"/>
<circle cx="32.5" cy="47.5" r="2.5" fill="#BFDBFE"/>
<circle cx="92.5" cy="2.5" r="2.5" fill="#BFDBFE"/>
<circle cx="92.5" cy="32.5" r="2.5" fill="#BFDBFE"/>
<circle cx="92.5" cy="17.5" r="2.5" fill="#BFDBFE"/>
<circle cx="92.5" cy="47.5" r="2.5" fill="#BFDBFE"/>
<circle cx="17.5" cy="2.5" r="2.5" fill="#BFDBFE"/>
<circle cx="17.5" cy="32.5" r="2.5" fill="#BFDBFE"/>
<circle cx="17.5" cy="17.5" r="2.5" fill="#BFDBFE"/>
<circle cx="17.5" cy="47.5" r="2.5" fill="#BFDBFE"/>
<circle cx="77.5" cy="2.5" r="2.5" fill="#BFDBFE"/>
<circle cx="77.5" cy="32.5" r="2.5" fill="#BFDBFE"/>
<circle cx="77.5" cy="17.5" r="2.5" fill="#BFDBFE"/>
<circle cx="77.5" cy="47.5" r="2.5" fill="#BFDBFE"/>
<circle cx="47.5" cy="2.5" r="2.5" fill="#BFDBFE"/>
<circle cx="47.5" cy="32.5" r="2.5" fill="#BFDBFE"/>
<circle cx="47.5" cy="17.5" r="2.5" fill="#BFDBFE"/>
<circle cx="47.5" cy="47.5" r="2.5" fill="#BFDBFE"/>
<circle cx="107.5" cy="2.5" r="2.5" fill="#BFDBFE"/>
<circle cx="107.5" cy="32.5" r="2.5" fill="#BFDBFE"/>
<circle cx="107.5" cy="17.5" r="2.5" fill="#BFDBFE"/>
<circle cx="107.5" cy="47.5" r="2.5" fill="#BFDBFE"/>
<circle cx="2.5" cy="62.5" r="2.5" fill="#BFDBFE"/>
<circle cx="2.5" cy="92.5" r="2.5" fill="#BFDBFE"/>
<circle cx="2.5" cy="77.5" r="2.5" fill="#BFDBFE"/>
<circle cx="2.5" cy="107.5" r="2.5" fill="#BFDBFE"/>
<circle cx="62.5" cy="62.5" r="2.5" fill="#BFDBFE"/>
<circle cx="62.5" cy="92.5" r="2.5" fill="#BFDBFE"/>
<circle cx="62.5" cy="77.5" r="2.5" fill="#BFDBFE"/>
<circle cx="62.5" cy="107.5" r="2.5" fill="#BFDBFE"/>
<circle cx="32.5" cy="62.5" r="2.5" fill="#BFDBFE"/>
<circle cx="32.5" cy="92.5" r="2.5" fill="#BFDBFE"/>
<circle cx="32.5" cy="77.5" r="2.5" fill="#BFDBFE"/>
<circle cx="32.5" cy="107.5" r="2.5" fill="#BFDBFE"/>
<circle cx="92.5" cy="62.5" r="2.5" fill="#BFDBFE"/>
<circle cx="92.5" cy="92.5" r="2.5" fill="#BFDBFE"/>
<circle cx="92.5" cy="77.5" r="2.5" fill="#BFDBFE"/>
<circle cx="92.5" cy="107.5" r="2.5" fill="#BFDBFE"/>
<circle cx="17.5" cy="62.5" r="2.5" fill="#BFDBFE"/>
<circle cx="17.5" cy="92.5" r="2.5" fill="#BFDBFE"/>
<circle cx="17.5" cy="77.5" r="2.5" fill="#BFDBFE"/>
<circle cx="17.5" cy="107.5" r="2.5" fill="#BFDBFE"/>
<circle cx="77.5" cy="62.5" r="2.5" fill="#BFDBFE"/>
<circle cx="77.5" cy="92.5" r="2.5" fill="#BFDBFE"/>
<circle cx="77.5" cy="77.5" r="2.5" fill="#BFDBFE"/>
<circle cx="77.5" cy="107.5" r="2.5" fill="#BFDBFE"/>
<circle cx="47.5" cy="62.5" r="2.5" fill="#BFDBFE"/>
<circle cx="47.5" cy="92.5" r="2.5" fill="#BFDBFE"/>
<circle cx="47.5" cy="77.5" r="2.5" fill="#BFDBFE"/>
<circle cx="47.5" cy="107.5" r="2.5" fill="#BFDBFE"/>
<circle cx="107.5" cy="62.5" r="2.5" fill="#BFDBFE"/>
<circle cx="107.5" cy="92.5" r="2.5" fill="#BFDBFE"/>
<circle cx="107.5" cy="77.5" r="2.5" fill="#BFDBFE"/>
<circle cx="107.5" cy="107.5" r="2.5" fill="#BFDBFE"/>
</svg>
