<?xml version="1.0" standalone="no"?>
<!DOCTYPE svg PUBLIC "-//W3C//DTD SVG 20010904//EN"
 "http://www.w3.org/TR/2001/REC-SVG-20010904/DTD/svg10.dtd">
<svg version="1.0" xmlns="http://www.w3.org/2000/svg"
 width="513.000000pt" height="105.000000pt" viewBox="0 0 513.000000 105.000000"
 preserveAspectRatio="xMidYMid meet">

<g transform="translate(0.000000,105.000000) scale(0.100000,-0.100000)"
fill="#000000" stroke="none">
<path d="M398 1034 c-92 -22 -176 -70 -249 -143 -102 -103 -149 -218 -149
-366 0 -149 47 -263 151 -368 204 -205 527 -206 733 -4 208 204 209 536 2 743
-127 127 -315 180 -488 138z m240 -88 c161 -43 285 -186 314 -359 18 -109 -17
-239 -89 -334 -43 -56 -137 -120 -210 -143 -250 -77 -505 71 -560 325 -21 95
-9 197 33 282 51 105 175 207 281 232 59 14 173 12 231 -3z"/>
<path d="M281 841 c-15 -16 -41 -32 -59 -36 -18 -3 -32 -10 -32 -15 0 -5 28
-24 63 -42 79 -42 196 -156 232 -227 57 -113 19 -230 -97 -298 -37 -23 -36
-33 5 -33 24 0 35 -6 42 -23 14 -30 78 -61 112 -52 15 3 41 22 59 41 18 19 42
34 53 34 30 0 26 9 -18 47 -74 63 -107 163 -80 244 28 81 177 246 256 282 30
13 29 27 -2 27 -17 0 -29 9 -39 29 -30 58 -109 63 -148 10 -13 -17 -31 -29
-45 -29 -28 0 -30 -14 -3 -33 66 -46 33 -167 -46 -167 -69 0 -103 110 -49 160
32 30 32 44 -1 37 -20 -3 -28 1 -37 20 -14 31 -56 53 -102 53 -28 0 -44 -7
-64 -29z"/>
<path d="M3095 715 c-5 -2 -22 -6 -37 -9 -32 -7 -38 -26 -8 -26 17 0 20 -7 20
-53 l0 -52 -42 3 c-33 2 -52 -3 -85 -24 -49 -32 -63 -59 -63 -120 0 -51 21
-98 49 -114 32 -16 81 -12 109 11 l27 21 3 -21 c3 -18 10 -21 58 -21 58 0 67
7 33 28 -20 13 -20 20 -17 198 3 179 2 184 -17 183 -11 0 -24 -2 -30 -4z m-38
-187 c8 -7 13 -36 13 -79 0 -57 -3 -70 -19 -79 -58 -30 -96 6 -96 92 0 48 4
62 20 74 21 15 59 11 82 -8z"/>
<path d="M4342 708 c-34 -34 6 -90 48 -68 35 19 20 80 -20 80 -9 0 -21 -5 -28
-12z"/>
<path d="M1276 701 c-31 -6 -48 -31 -22 -31 17 0 49 -39 100 -124 32 -54 36
-67 36 -132 0 -68 -2 -73 -22 -76 -13 -2 -22 -7 -20 -13 3 -15 174 -13 180 3
2 7 -6 12 -22 12 -26 0 -26 1 -26 75 0 85 6 100 82 213 39 58 46 73 33 78 -22
9 -35 -5 -85 -95 -25 -44 -48 -81 -52 -81 -3 0 -23 30 -43 68 -60 109 -72 118
-139 103z"/>
<path d="M1745 698 c-165 -59 -179 -288 -22 -370 78 -41 257 -22 257 26 0 12
-8 12 -48 -1 -95 -30 -177 1 -213 81 -53 117 13 246 125 246 55 0 106 -31 106
-65 0 -38 17 -30 24 13 3 20 6 42 6 49 0 29 -169 44 -235 21z"/>
<path d="M2020 693 c0 -7 8 -13 19 -13 24 0 31 -35 31 -164 0 -136 -7 -176
-31 -176 -11 0 -19 -7 -19 -15 0 -12 17 -15 90 -15 73 0 90 3 90 15 0 9 -9 15
-24 15 -23 0 -25 4 -31 84 -4 46 -3 122 1 168 l9 83 35 -2 c41 -2 60 -24 60
-73 0 -46 -19 -71 -53 -73 -41 -3 -33 -27 8 -27 43 0 88 22 109 52 23 33 21
103 -4 128 -23 23 -26 23 -177 24 -84 1 -113 -2 -113 -11z"/>
<path d="M2514 701 c-10 -10 -2 -20 19 -23 22 -3 22 -6 25 -164 2 -135 0 -163
-13 -174 -8 -7 -15 -17 -15 -21 0 -6 62 -8 143 -7 l142 3 3 48 c3 53 -11 62
-27 17 -10 -30 -11 -30 -80 -30 l-71 0 0 76 0 75 53 -3 c46 -3 52 -6 55 -26 6
-42 27 -16 30 38 4 61 -12 88 -27 47 -10 -24 -15 -27 -61 -27 l-51 0 3 68 3
67 65 0 c60 0 65 -2 68 -22 5 -31 22 -29 24 2 4 65 16 60 -140 60 -79 0 -145
-2 -148 -4z"/>
<path d="M4163 664 c-30 -13 -33 -18 -33 -58 0 -34 -5 -47 -22 -59 l-23 -16
23 0 c21 -1 22 -4 22 -94 0 -78 3 -97 18 -110 25 -23 85 -22 105 1 24 26 22
30 -15 34 l-33 3 -3 83 -3 82 31 0 c22 0 30 5 30 18 0 15 -6 18 -32 14 l-31
-5 6 62 c3 33 2 61 -1 60 -4 0 -22 -7 -39 -15z"/>
<path d="M4570 577 c-19 -7 -45 -27 -58 -47 -32 -48 -28 -146 7 -184 65 -69
193 -52 227 31 17 40 18 113 2 147 -23 53 -109 78 -178 53z m76 -25 c23 -15
34 -53 34 -120 0 -79 -20 -109 -63 -98 -32 8 -47 45 -47 119 0 85 33 128 76
99z"/>
<path d="M3243 567 c-46 -12 -54 -22 -24 -30 17 -4 19 -16 22 -102 3 -82 7
-99 23 -111 29 -21 84 -17 114 7 l27 21 3 -21 c3 -18 10 -21 58 -21 39 0 54 4
54 14 0 7 -9 16 -21 19 -20 5 -21 11 -18 121 2 64 1 116 -3 116 -21 0 -108
-25 -108 -31 0 -3 9 -9 20 -12 18 -5 20 -14 20 -79 0 -81 -9 -98 -52 -98 -40
0 -50 27 -46 131 3 99 7 94 -69 76z"/>
<path d="M3628 550 c-37 -23 -49 -38 -58 -70 -30 -113 53 -203 159 -171 58 17
61 39 5 39 -53 -1 -80 19 -94 73 -18 66 4 119 49 119 33 0 48 -10 52 -34 8
-39 27 -27 31 19 2 26 1 48 -1 51 -2 2 -25 4 -50 4 -33 0 -59 -8 -93 -30z"/>
<path d="M3873 560 c-18 -11 -33 -27 -33 -35 0 -19 26 -20 34 0 13 34 86 9 86
-29 0 -20 -8 -26 -47 -35 -76 -19 -93 -35 -93 -84 0 -24 5 -48 12 -55 19 -19
73 -14 102 9 l26 20 0 -20 c0 -19 6 -21 55 -21 57 0 70 11 35 30 -18 10 -20
21 -20 105 0 82 -3 98 -20 115 -27 27 -94 27 -137 0z m87 -150 c0 -29 -5 -42
-19 -50 -29 -15 -51 -2 -51 32 0 23 6 32 33 43 17 8 33 14 35 15 1 0 2 -18 2
-40z"/>
<path d="M4333 567 c-44 -10 -58 -27 -24 -27 25 0 31 -19 31 -105 0 -72 -13
-105 -41 -105 -6 0 -7 -4 -4 -10 9 -14 155 -13 155 1 0 6 -9 13 -20 16 -19 5
-20 14 -20 124 0 133 5 126 -77 106z"/>
<path d="M4843 568 c-46 -10 -55 -22 -23 -31 18 -5 20 -14 20 -100 0 -87 -2
-96 -20 -102 -42 -13 -17 -25 54 -25 78 0 105 13 62 30 -25 9 -26 13 -26 88 0
85 8 102 50 102 43 0 50 -16 50 -122 l0 -98 55 0 c42 0 55 3 55 15 0 8 -7 15
-15 15 -11 0 -15 11 -16 38 -3 149 -4 160 -23 181 -25 28 -88 28 -127 0 l-29
-20 0 20 c0 23 -4 23 -67 9z"/>
</g>
</svg>
