<svg width="64" height="64" viewBox="0 0 64 64" fill="none" xmlns="http://www.w3.org/2000/svg">
<rect width="64" height="64" rx="16" fill="#EFF6FF"/>
<path d="M20.4402 22.7275C20.1467 22.6127 20 22.4213 20 22.1916C20 21.7704 21.1801 21.4259 22.4459 21.5535C22.7313 20.7858 23.2369 20.1287 23.8935 19.6719C24.5501 19.2151 25.3258 18.9809 26.1147 19.0012C26.9844 19.0236 27.8229 19.3436 28.5013 19.912C29.1796 20.4804 29.6602 21.2656 29.8691 22.1469C30.6395 21.8023 32.0336 21.6875 32.0336 21.9938C32.0336 22.1469 31.9664 22.2235 31.7463 22.3766C31.1434 22.7251 30.6428 23.2382 30.2981 23.8609C29.9534 24.4836 29.7776 25.1925 29.7896 25.9115C29.7896 27.864 30.9697 29.5166 32.7001 29.5166C34.4306 29.5166 35.6414 27.864 35.6414 25.9115C35.6636 25.2411 35.5073 24.5773 35.19 23.9938C34.8727 23.4104 34.4066 22.9301 33.8436 22.6063C33.6235 22.4532 33.4034 22.3 33.4034 22.1469C33.4034 21.6492 34.7974 21.7258 35.4945 21.9938C35.6446 21.2129 36.0497 20.5106 36.6408 20.0067C37.2319 19.5029 37.9722 19.2287 38.7352 19.2309C39.5094 19.2441 40.2537 19.545 40.8342 20.0795C41.4148 20.614 41.7936 21.347 41.9027 22.1469C42.4164 21.8789 44 22.0703 44 22.4914C44 22.7212 43.7003 22.836 43.3886 22.9891C40.6797 24.3036 33.171 31.1373 33.171 36.2035C33.171 40.1596 36.2282 43.6116 37.6591 44.154C38.1422 44.3453 38.2157 44.5369 38.2157 44.6516C38.2157 45.0345 37.2555 45.3408 36.0816 45.0727C35.8429 45.924 35.3442 46.6705 34.6615 47.199C33.9787 47.7273 33.1493 48.0086 32.2994 47.9998C31.4494 47.9912 30.6255 47.6931 29.9528 47.1509C29.2801 46.6087 28.7955 45.8522 28.5727 44.9961C27.3498 45.2259 26.1819 45.1111 26.1819 44.69C26.1819 44.5369 26.2553 44.3837 26.6955 44.1922C28.2792 43.5032 31.9603 40.619 31.9603 36.2865C31.9603 31.1373 25.0385 24.5333 20.4402 22.7275Z" fill="#2563EB"/>
<path d="M12 31.9967C12.0017 26.6938 14.109 21.6086 17.8588 17.8588C21.6086 14.109 26.6938 12.0017 31.9968 12C37.3008 12 42.3878 14.1066 46.139 17.8565C49.89 21.6065 51.9984 26.6927 52 31.9967C52 37.302 49.8926 42.3899 46.1412 46.1412C42.3898 49.8925 37.302 52 31.9968 52C26.6927 51.9982 21.6065 49.8901 17.8565 46.139C14.1066 42.3879 12 37.301 12 31.9967ZM20.1646 20.1646C18.6062 21.7153 17.3704 23.5592 16.5285 25.5901C15.6866 27.6209 15.2553 29.7984 15.2594 31.9967C15.2552 34.1963 15.6864 36.3748 16.5283 38.4065C17.3702 40.4385 18.606 42.2835 20.1646 43.8354C21.7153 45.3937 23.5592 46.6295 25.5901 47.4714C27.6209 48.3133 29.7984 48.7446 31.9968 48.7406C34.1964 48.7456 36.375 48.3147 38.407 47.4726C40.439 46.6307 42.284 45.3945 43.8354 43.8354C45.3928 42.2827 46.628 40.4375 47.4698 38.4057C48.3116 36.374 48.7434 34.1961 48.7406 31.9967C48.7432 29.7986 48.3114 27.6215 47.4696 25.5909C46.6276 23.5602 45.3926 21.7161 43.8354 20.1646C42.284 18.6055 40.439 17.3692 38.407 16.5273C36.375 15.6854 34.1964 15.2545 31.9968 15.2594C29.7984 15.2553 27.6209 15.6866 25.5901 16.5285C23.5592 17.3704 21.7153 18.6062 20.1646 20.1646Z" fill="#2563EB"/>
</svg>
